<svg fill="#000000" xmlns="http://www.w3.org/2000/svg"  viewBox="0 0 16 16" width="16px" height="16px"><path d="M 7.5 1.035156 C 3.917969 1.035156 1 3.941406 1 7.515625 L 1 8 L 2 8 L 2 7.515625 C 2 4.484375 4.457031 2.035156 7.5 2.035156 C 9.132813 2.035156 10.589844 2.75 11.59375 3.875 L 10.464844 5 L 14 5 L 14 1.476563 L 12.300781 3.167969 C 11.113281 1.863281 9.40625 1.035156 7.5 1.035156 Z M 13 7 L 13 7.5 C 13 10.542969 10.542969 13 7.5 13 C 5.859375 13 4.402344 12.277344 3.394531 11.140625 L 4.535156 10 L 1 10 L 1 13.535156 L 2.6875 11.847656 C 3.878906 13.164063 5.589844 14 7.5 14 C 11.085938 14 14 11.085938 14 7.5 L 14 7 Z"/></svg>